<svg id="Ebene_2" data-name="Ebene 2" xmlns="http://www.w3.org/2000/svg" viewBox="0 0 20 15"><defs><style>.cls-1{fill:#373736;stroke:#1d1d1b;stroke-miterlimit:10;stroke-width:0.2px;}</style></defs><path class="cls-1" d="M1,2.48s2.87-1.31,9.08-1.33,8.83,1.43,8.83,1.43L17.28,4.52,16,3.26s-1.44-.83-6.59-.67-6.15.54-6.15.54L1.36,4.24Z"/><polygon class="cls-1" points="8.72 6.56 8.75 4.47 9.27 4.25 10.86 4.22 11.04 4.08 11.35 4.15 12.02 5.44 10.22 7.67 8.72 6.56"/><line class="cls-1" x1="8.72" y1="6.53" x2="11.04" y2="4.08"/><path class="cls-1" d="M11.61,4.61s7-2.27,7.41-2.07.6,1.61.34,1.87a61.61,61.61,0,0,1-8.19,2.13L12,5.44Z"/><path class="cls-1" d="M8.72,4.8S1.65,2.35,1,2.52.64,4.69.79,4.77s8,1.76,8,1.76Z"/><path class="cls-1" d="M9.15,6.88S7,12.3,7.2,14c.6.47,1.75.06,1.75.06l1-6.58Z"/><path class="cls-1" d="M10.54,7.25l4,5.83s1.24-.41,1.1-1.05c-.21-.95-4.37-5.59-4.37-5.59Z"/></svg>